<svg width="340" height="205" viewBox="0 0 340 205" fill="none" xmlns="http://www.w3.org/2000/svg">
<path d="M259 41C259 39.3431 257.657 38 256 38H25.3834C23.88 37.9994 22.4371 38.5923 21.3685 39.6498L1.69369 59.1404C1.15736 59.6706 0.731522 60.302 0.440803 60.9979C0.150084 61.6938 0.000259921 62.4405 0 63.1947V199.215C0 200.728 0.600969 202.179 1.6707 203.248C2.74043 204.318 4.1913 204.919 5.70412 204.919H266.871C268.092 204.919 269.281 204.527 270.262 203.8L299.349 182.274C300.065 181.743 300.647 181.052 301.048 180.255C301.449 179.459 301.657 178.58 301.657 177.689V86.1098C301.657 84.3923 300.265 83 298.547 83C296.83 83 295.438 84.3923 295.438 86.1098V168.538C295.438 170.747 293.647 172.538 291.438 172.538C270.373 172.536 116.296 172.525 95.2191 172.514C74.1423 172.503 53.0654 172.492 32.0007 172.491C29.7917 172.491 28.0009 170.7 28.0008 168.491C27.9996 142.039 28 115.588 28.0004 89.1363C28.0006 75.9922 28.0007 62.8482 28.0007 49.7041V48.0007C28.0007 45.7933 29.7893 44.0026 31.9966 44.0009C32.6731 44.0004 33.2898 44 33.7049 44H256C257.657 44 259 42.6569 259 41Z" fill="white"/>
<path d="M86.6201 111.999L80.2926 94.5794H68.2842L61.9302 111.999L53.0084 94.5794H41L55.5972 122.024H68.2839L74.2855 108.359L80.2923 122.024H92.9738L107.572 94.5794H95.5632L86.6201 111.999Z" fill="white"/>
<path d="M110.684 117.043H124.396L126.549 122.024H138.563L123.878 94.5794H111.191L96.5154 122.045H108.524L110.684 117.043ZM117.545 102.295L121.289 110.373H113.775L117.545 102.295Z" fill="white"/>
<path d="M155.563 102.336C156.995 102.321 158.423 102.487 159.814 102.828C160.974 103.077 162.006 103.733 162.724 104.677H174.065C172.863 96.2571 165.044 94.191 155.563 94.191C145.258 94.191 136.833 96.661 136.875 107.018V109.011C136.833 119.342 145.258 122.506 155.563 122.542C160.223 122.542 165.029 121.232 168.203 118.099L168.721 122.024H174.054V106.671H155.465V111.331H164.055C162.445 113.402 159.757 113.651 155.547 113.651C151.167 113.589 147.464 112.817 147.526 108.322V107.649C147.48 103.212 151.182 102.424 155.563 102.336Z" fill="white"/>
<path d="M224.875 122.024V94.5794H211.541L200.853 108.012L190.191 94.5794H176.836V122.024H187.503V107.095L198.186 122.024H203.519L214.207 107.095V122.024H224.875Z" fill="white"/>
<path d="M238.302 94.5794H227.635L227.635 122.024H238.302L238.302 94.5794Z" fill="white"/>
<path d="M262.401 122.024V93H247.306V102.155H251.112V122.024H262.401Z" fill="white"/>
<path d="M283 122.024V93H267.905V102.155H271.711V122.024H283Z" fill="white"/>
<path fill-rule="evenodd" clip-rule="evenodd" d="M268.455 45.8633C268.635 46.1705 268.823 46.4688 269.012 46.7409C269.043 46.7891 269.074 46.8352 269.106 46.8813L269.107 46.8825L269.107 46.8826C269.139 46.9282 269.17 46.9739 269.201 47.0217L269.289 47.1525L269.29 47.1528C269.392 47.3033 269.495 47.4547 269.6 47.6008L269.832 47.9167C269.875 47.9722 269.917 48.0286 269.959 48.0845C270.043 48.1966 270.126 48.3087 270.214 48.4169L270.473 48.7328C270.596 48.8864 270.723 49.04 270.85 49.1716L271.131 49.4831C271.258 49.6235 271.386 49.7595 271.517 49.8955L271.807 50.1895C271.938 50.3211 272.07 50.4484 272.206 50.5712C272.228 50.5909 272.248 50.6091 272.266 50.6262C272.297 50.6539 272.323 50.6788 272.348 50.7019L272.353 50.7058L272.354 50.7072L272.356 50.7087C272.408 50.7572 272.453 50.7991 272.509 50.8476L272.531 50.8673C272.634 50.9565 272.791 51.0927 272.917 51.1986L273.228 51.4575L273.667 51.7778L273.983 52.0103L273.985 52.0116C274.133 52.1121 274.282 52.2126 274.422 52.3087L274.733 52.5105C274.858 52.5868 274.988 52.6602 275.117 52.7332L275.22 52.7913C275.238 52.8015 275.255 52.8108 275.27 52.8194C275.286 52.8288 275.301 52.8374 275.314 52.8453L275.363 52.8734C275.418 52.9054 275.453 52.926 275.514 52.9581C275.652 53.03 275.792 53.0975 275.932 53.1652C275.989 53.1926 276.046 53.2199 276.102 53.2476L276.308 53.3442C276.576 53.467 276.848 53.5767 277.125 53.6776L277.353 53.7566C277.41 53.7754 277.468 53.7946 277.525 53.8137C277.668 53.8615 277.81 53.9089 277.954 53.9496C278.02 53.9707 278.086 53.9871 278.152 54.0035C278.195 54.0143 278.239 54.0252 278.283 54.0374L278.801 54.1646L279.165 54.2348C279.216 54.2435 279.266 54.2526 279.316 54.2615C279.444 54.2843 279.57 54.3069 279.696 54.3226L279.889 54.3489C280.156 54.3796 280.424 54.4103 280.696 54.4235L281.666 54.4762L281.363 54.3226C281.323 54.3006 281.283 54.2787 281.243 54.2567L281.241 54.2557C281.065 54.1593 280.886 54.0617 280.722 53.9584L280.117 53.5679L279.876 53.4144C279.795 53.3588 279.715 53.2988 279.636 53.2386L279.635 53.2385L279.634 53.2374C279.576 53.1935 279.518 53.1496 279.459 53.1072L279.416 53.0768C279.302 52.9949 279.233 52.9449 279.138 52.8703C278.932 52.7136 278.727 52.5416 278.526 52.3717C278.462 52.3182 278.399 52.2648 278.336 52.2122L278.213 52.1113C277.91 51.8392 277.616 51.5584 277.335 51.2645C277.28 51.2095 277.227 51.1526 277.173 51.0951L277.172 51.0938L277.124 51.0427L277.089 51.0056C276.888 50.7906 276.681 50.5668 276.484 50.3475C276.42 50.2746 276.356 50.1979 276.292 50.1212L276.291 50.1204C276.259 50.0818 276.227 50.0433 276.194 50.0052C276.083 49.8723 275.974 49.7359 275.865 49.6004L275.862 49.597C275.796 49.5146 275.73 49.4324 275.663 49.3515L275.383 48.9829C275.203 48.7416 275.027 48.4959 274.856 48.2414C274.826 48.1964 274.794 48.1517 274.762 48.1073L274.762 48.1066L274.762 48.1065C274.717 48.043 274.672 47.9792 274.628 47.9123C274.387 47.5482 274.15 47.1752 273.922 46.7891C273.527 46.1222 273.158 45.4246 272.812 44.705C272.658 44.3891 272.513 44.0644 272.373 43.7398C270.227 38.8959 269.148 32.9463 269.503 26.5536V26.5185C269.942 18.735 272.483 11.7806 276.225 6.83146C276.444 6.54188 276.664 6.26546 276.892 5.99343L277.028 5.82232L277.126 5.70638L277.127 5.70554C277.316 5.4825 277.502 5.26312 277.704 5.0501L277.813 4.93164C277.905 4.83403 277.999 4.73964 278.092 4.64537L278.093 4.64466L278.093 4.64463C278.218 4.51878 278.342 4.39314 278.463 4.26034L278.577 4.14626C278.703 4.02285 278.83 3.90669 278.958 3.78958L278.959 3.78904C279.072 3.68572 279.186 3.58151 279.301 3.47057L279.454 3.33017C279.959 2.89141 280.477 2.47898 281.008 2.10165L281.17 1.98319C281.433 1.80329 281.692 1.62779 281.96 1.46106L282.091 1.38647C282.307 1.25193 282.522 1.12738 282.74 1.00124L282.74 1.0012L282.833 0.947717L282.925 0.895066H282.964C283.228 0.754663 283.495 0.623036 283.763 0.500184L283.833 0.465083L283.934 0.421207C284.227 0.28958 284.519 0.166728 284.812 0.0526509L283.842 0H282.842L282.293 0.0351006L281.929 0.0614262C281.801 0.0614262 281.676 0.0834911 281.55 0.105712C281.498 0.114827 281.446 0.12397 281.394 0.131627L281.065 0.179891C280.901 0.207744 280.737 0.243896 280.576 0.279557L280.576 0.279566L280.45 0.30713L280.205 0.359781C279.924 0.429982 279.639 0.508959 279.362 0.601098L279.147 0.675687C278.937 0.745888 278.73 0.820477 278.524 0.899453L278.204 1.03547L278.13 1.06663C277.987 1.12662 277.841 1.18755 277.699 1.25485L277.353 1.42596L276.883 1.66728L276.532 1.86911L276.093 2.13675L276.093 2.13734C275.974 2.21173 275.856 2.28614 275.742 2.3649L275.304 2.65887L274.957 2.90896L274.518 3.22926L274.176 3.50567C274.036 3.61975 273.9 3.73821 273.764 3.85667L273.764 3.85668L273.435 4.15065C273.294 4.27789 273.158 4.40952 273.022 4.54114L272.711 4.84389C272.606 4.94807 272.505 5.0571 272.402 5.16736L272.4 5.16868C272.365 5.20657 272.33 5.24461 272.294 5.28264L272.236 5.34417L272.199 5.38325C272.123 5.46325 272.076 5.51224 272.009 5.58977L271.956 5.64979L271.954 5.65206L271.953 5.6537C271.848 5.77249 271.686 5.95675 271.57 6.09873L271.333 6.37515C271.114 6.64133 270.899 6.91336 270.688 7.19124C267.454 11.4647 265.37 16.7825 264.488 22.3459C264.146 24.4903 263.984 26.6594 264.001 28.8308C264.001 29.2695 264.001 29.7083 264.032 30.147C264.287 35.75 265.739 41.2564 268.455 45.8633ZM287.405 20.841L287.316 20.8491L287.4 20.841H287.405ZM286.379 20.9495L286.344 20.9535C286.192 20.9697 286.056 20.9828 285.939 20.9902L286.378 26.207C286.69 26.185 288.778 26.0403 289.287 26.0227C290.818 25.7682 292.306 25.0794 292.337 23.1488C291.981 20.9902 289.884 20.7137 288.094 20.7927L287.576 20.8454L286.29 20.9594L286.344 20.9535C286.432 20.944 286.525 20.9334 286.623 20.9224L286.832 20.899C286.67 20.9165 286.518 20.9337 286.379 20.9495ZM339.24 39.5452C339.266 39.7339 339.266 39.962 339.266 40.1726L339.257 40.6509V41.7741C339.254 41.87 339.246 41.9667 339.239 42.0638L339.239 42.0641C339.229 42.2023 339.218 42.3414 339.218 42.4805C339.215 42.534 339.21 42.5875 339.205 42.6412L339.205 42.6417C339.196 42.7332 339.187 42.8254 339.187 42.9192C339.165 43.1781 339.135 43.4414 339.104 43.7046C339.099 43.7471 339.093 43.79 339.088 43.8319L339.087 43.8328C339.076 43.9156 339.064 43.9978 339.064 44.0819C339.012 44.4637 338.955 44.8498 338.884 45.2403C338.779 45.9335 338.626 46.6355 338.446 47.3419C337.103 52.3768 334.74 57.0824 331.505 61.1672C329.558 63.6768 327.352 65.974 324.923 68.0206C323.786 68.9762 322.599 69.8725 321.369 70.7058C320.565 71.2527 319.755 71.7602 318.939 72.2283C315.886 74.0178 312.571 75.3149 309.115 76.0718C308.72 76.1507 308.325 76.2253 307.93 76.2868C307.903 76.2915 307.877 76.2967 307.85 76.3019C307.754 76.3206 307.657 76.3394 307.557 76.3394C307.294 76.3789 307.026 76.4184 306.763 76.4491L306.697 76.4573C306.573 76.4728 306.447 76.4886 306.324 76.4886C306.289 76.4919 306.253 76.4955 306.218 76.4994C306.181 76.5035 306.143 76.5077 306.106 76.512L306.105 76.5122C305.94 76.5311 305.774 76.55 305.613 76.55C305.456 76.572 305.302 76.572 305.148 76.572L304.477 76.5983H304.003C303.939 76.5983 303.866 76.6011 303.792 76.6039C303.638 76.6098 303.476 76.616 303.367 76.5983C303.268 76.5822 303.19 76.5808 303.097 76.5792C303.038 76.5782 302.973 76.5771 302.893 76.572C302.687 76.5588 302.432 76.5412 302.275 76.5281C302.18 76.5202 302.102 76.5107 302.012 76.4997C301.952 76.4923 301.886 76.4842 301.805 76.4754C301.603 76.4535 301.406 76.4315 301.208 76.4008L300.743 76.3219L300.682 76.3107C300.501 76.2778 300.29 76.2397 300.168 76.2122C300.032 76.1815 299.883 76.1464 299.73 76.1069L299.173 75.9709L298.734 75.8348C298.554 75.7822 298.374 75.7252 298.198 75.6637L297.76 75.5058C297.689 75.4787 297.616 75.4485 297.544 75.4185C297.44 75.3757 297.337 75.3331 297.242 75.2996C297.118 75.256 297.009 75.2073 296.902 75.1594L296.902 75.1594L296.901 75.1586C296.868 75.144 296.836 75.1295 296.803 75.1153L296.307 74.8784C296.176 74.8106 296.073 74.7551 295.921 74.6724L295.919 74.6714L295.904 74.6634C295.796 74.6049 295.678 74.5368 295.572 74.4757L295.493 74.4302L295.426 74.3913L295.362 74.3556C295.255 74.2956 295.153 74.2388 295.039 74.1544C294.903 74.0535 294.723 73.9306 294.601 73.8473C294.529 73.7987 294.469 73.7546 294.402 73.7046C294.353 73.6687 294.301 73.6298 294.236 73.584C294.083 73.4743 293.916 73.3427 293.798 73.2462C293.679 73.1497 293.561 73.0529 293.446 72.952C293.245 72.7766 293.043 72.6011 292.85 72.4125L291.244 70.912L291.319 70.9427L291.367 70.969L291.442 71.0085L291.569 71.0743L291.63 71.1094L291.836 71.2191L292.065 71.342L292.187 71.4078L292.253 71.4429L292.389 71.5131L292.477 71.5526C292.715 71.6413 292.961 71.719 293.203 71.7957L293.267 71.8158L293.355 71.8465L293.684 71.9431H293.719C294.079 72.0484 294.438 72.1361 294.802 72.2195L294.982 72.2634C295.342 72.3423 295.706 72.4125 296.075 72.474L296.259 72.5003C296.636 72.5573 297.014 72.61 297.4 72.6495H297.514L297.602 72.6576L297.706 72.6674C298.028 72.6979 298.351 72.7284 298.677 72.7284H300.142C300.533 72.7197 300.919 72.6977 301.314 72.667H301.533C301.928 72.6319 302.327 72.5836 302.726 72.5266L302.902 72.5003C303.323 72.4389 303.753 72.3643 304.174 72.2765C304.596 72.1888 305.021 72.0879 305.442 71.9826C305.864 71.8773 306.276 71.7588 306.715 71.6315C311.32 70.1915 315.617 67.9061 319.386 64.8922C321.028 63.6002 322.58 62.1988 324.033 60.6977C330.022 54.4937 333.773 47.2015 334.966 40.4008C335.037 39.9971 335.094 39.5978 335.146 39.1986C335.148 39.1871 335.15 39.1756 335.152 39.1641L335.159 39.1309C335.17 39.0745 335.181 39.0181 335.181 38.9616C335.225 38.5755 335.265 38.1894 335.295 37.8077V37.5927L335.305 37.4635C335.329 37.1415 335.352 36.817 335.352 36.4958V35.0172C335.339 34.6443 335.317 34.2757 335.287 33.9072V33.7492C335.256 33.4026 335.216 33.0604 335.168 32.7181V32.5733C335.111 32.2136 335.05 31.8582 334.98 31.5072C334.975 31.4873 334.97 31.4678 334.964 31.4485L334.964 31.4467C334.95 31.3941 334.936 31.3431 334.936 31.2922C334.857 30.9412 334.773 30.5901 334.681 30.2435C334.677 30.2276 334.673 30.2117 334.669 30.1959C334.666 30.1877 334.664 30.1797 334.661 30.1716C334.657 30.156 334.651 30.1405 334.646 30.1251C334.585 29.9013 334.519 29.6819 334.444 29.4625L334.418 29.366C334.402 29.3304 334.389 29.2938 334.378 29.2563C334.26 28.9141 334.137 28.5719 334.001 28.2384L334.769 29.0238C335.019 29.2739 335.278 29.5459 335.493 29.7916C335.708 30.0373 335.918 30.2918 336.116 30.555L336.195 30.6647C336.362 30.8929 336.528 31.1254 336.686 31.3624C336.724 31.4216 336.76 31.4825 336.796 31.5441C336.819 31.5828 336.842 31.6217 336.866 31.6607C336.98 31.8406 337.09 32.0249 337.195 32.2092L337.212 32.2384C337.267 32.339 337.304 32.4041 337.384 32.5646C337.42 32.6362 337.461 32.7166 337.501 32.7954L337.501 32.7963C337.559 32.9101 337.615 33.0204 337.652 33.0955C337.685 33.1652 337.71 33.223 337.738 33.2899L337.738 33.2912L337.739 33.2925C337.762 33.3471 337.788 33.4078 337.823 33.4859C337.901 33.6609 337.976 33.8359 338.05 34.0108L338.051 34.0125L338.204 34.4293C338.231 34.5084 338.259 34.5866 338.287 34.6651L338.288 34.6667L338.288 34.6678L338.289 34.6691C338.324 34.7679 338.359 34.8671 338.393 34.9689L338.525 35.4077C338.556 35.5181 338.591 35.6442 338.622 35.7578L338.649 35.8567L338.678 35.9605C338.718 36.1009 338.744 36.2106 338.788 36.3993C338.812 36.5015 338.835 36.6218 338.857 36.7315C338.876 36.8242 338.892 36.9094 338.906 36.9697C338.937 37.1013 338.963 37.2154 338.994 37.4084C339.025 37.6015 339.06 37.834 339.082 37.992L339.096 38.0909L339.096 38.092L339.096 38.0941L339.097 38.0951C339.112 38.2053 339.126 38.3061 339.143 38.4615C339.151 38.5363 339.156 38.6175 339.16 38.6977C339.168 38.8337 339.176 38.9676 339.2 39.0669C339.222 39.1552 339.224 39.2352 339.226 39.3216C339.227 39.3898 339.228 39.4619 339.24 39.5452ZM304.748 23.3639C305.082 23.1884 305.415 23.0173 305.749 22.855L305.973 22.7628C306.209 22.6483 306.449 22.5399 306.686 22.4326L306.687 22.4322L306.688 22.4317L306.819 22.3723L307.039 22.2758L307.35 22.1398L308.017 21.8634L308.811 21.5519L309.351 21.3544L310.167 21.078L310.68 20.9157C310.966 20.8235 311.26 20.7402 311.558 20.6612C311.616 20.6458 311.674 20.6297 311.731 20.6137C311.82 20.5888 311.908 20.5641 311.997 20.5427C312.435 20.4286 312.874 20.3277 313.313 20.2356C314.862 19.9079 316.438 19.7301 318.021 19.7047C318.29 19.6871 318.558 19.693 318.824 19.6989C318.956 19.7018 319.087 19.7047 319.219 19.7047C320.219 19.7474 321.213 19.8707 322.193 20.0732C322.606 20.1566 323.075 20.2751 323.413 20.3672C323.751 20.4594 324.08 20.569 324.409 20.6831C325.375 21.0254 326.303 21.4665 327.178 21.9994C328.048 22.5339 328.856 23.1637 329.586 23.8773C329.641 23.9317 329.693 23.9879 329.746 24.0448L329.747 24.0458L329.748 24.0466L329.778 24.079C329.796 24.098 329.814 24.1171 329.832 24.1361C329.916 24.2364 330.01 24.3385 330.106 24.4423L330.182 24.5255C330.212 24.5579 330.242 24.5904 330.271 24.6232C333.654 28.4623 334.759 34.0214 333.684 40.1333C333.614 40.5413 333.535 40.945 333.443 41.3574C333.351 41.7698 333.237 42.2393 333.14 42.5991L333.122 42.6677L333.122 42.6692C333.031 43.0061 332.94 43.3467 332.833 43.6872C332.719 44.0514 332.605 44.4155 332.478 44.7841C332.316 45.2536 332.14 45.723 331.956 46.1925C331.71 46.8243 331.447 47.4517 331.157 48.0792C330.821 48.7987 330.457 49.53 330.065 50.2729C329.673 51.0159 329.253 51.7472 328.805 52.4667C327.169 55.0959 325.257 57.5434 323.102 59.7677C319.694 63.3326 315.684 66.2677 311.255 68.4375C310.43 68.8324 309.61 69.1922 308.785 69.5125L308.622 69.5713C308.265 69.7007 307.91 69.8293 307.552 69.9512C306.73 70.2379 305.914 70.4836 305.104 70.6883C304.696 70.7893 304.244 70.8989 303.888 70.9691C303.533 71.0394 303.173 71.1052 302.818 71.1622L302.537 71.2105C302.23 71.2587 301.923 71.2982 301.616 71.3333H301.466C301.12 71.3728 300.778 71.3991 300.436 71.4254L300.435 71.4255H300.172C299.891 71.4562 299.611 71.4562 299.334 71.4562H297.899C297.632 71.443 297.364 71.4255 297.101 71.3991L296.855 71.3772C296.539 71.3465 296.219 71.307 295.907 71.2587L295.741 71.228C295.488 71.1907 295.243 71.1416 294.994 71.0919L294.951 71.0832L294.705 71.0306C294.398 70.9604 294.095 70.8858 293.797 70.8024H293.736C293.459 70.7191 293.183 70.6313 292.911 70.5348L292.678 70.4514C292.415 70.3549 292.156 70.254 291.902 70.1443L291.818 70.1136C291.638 70.0346 291.48 69.96 291.292 69.8591C291.197 69.8086 291.092 69.756 290.985 69.7022C290.877 69.6485 290.767 69.5936 290.664 69.5388C290.537 69.4686 290.41 69.3984 290.287 69.3238C290.085 69.2068 289.888 69.084 289.695 68.9553L289.339 68.7183C289.133 68.5867 288.936 68.4331 288.738 68.2796L288.449 68.0558C288.402 68.0175 288.354 67.9778 288.306 67.9383C288.057 67.7337 287.791 67.5156 287.615 67.3099C287.496 67.1711 287.371 67.045 287.248 66.9195L287.248 66.9195C287.152 66.8228 287.057 66.7266 286.966 66.6254L286.777 66.4061C286.636 66.2393 286.496 66.0682 286.364 65.8971L286.167 65.6382C286.035 65.4627 285.913 65.2828 285.79 65.103C285.775 65.0816 285.761 65.0602 285.746 65.0387C285.707 64.9809 285.667 64.9224 285.632 64.8616C285.469 64.6072 285.311 64.3527 285.167 64.085C285.165 64.0763 285.165 64.0674 285.167 64.0587C285.004 63.7867 284.86 63.5059 284.728 63.2207C284.699 63.1622 284.673 63.1036 284.648 63.0451C284.635 63.0159 284.623 62.9866 284.609 62.9574C284.517 62.7556 284.43 62.5494 284.346 62.3432L284.228 62.0317C284.165 61.8825 284.108 61.7088 284.053 61.5385C284.038 61.4933 284.023 61.4484 284.008 61.4042L283.912 61.1103C283.828 60.8295 283.745 60.5443 283.675 60.2547C283.665 60.2276 283.658 60.1997 283.653 60.1713C283.574 59.8554 283.508 59.5351 283.447 59.2104C283.441 59.1802 283.434 59.1492 283.427 59.1176C283.411 59.0484 283.394 58.977 283.394 58.9077C283.355 58.6795 283.319 58.447 283.289 58.2145C283.284 58.1855 283.28 58.1565 283.275 58.1274C283.26 58.0378 283.245 57.9475 283.245 57.8547C283.237 57.7785 283.228 57.7059 283.219 57.6359C283.198 57.4762 283.179 57.3274 283.179 57.1658C283.148 57.0518 283.148 56.9377 283.148 56.8236C283.113 56.5255 283.113 56.2266 283.113 55.9241V54.7351C283.113 54.6956 283.11 54.662 283.106 54.6283C283.1 54.5611 283.093 54.4938 283.113 54.3797C283.144 54.2086 283.144 54.0331 283.144 53.8576V53.6865C283.166 53.4057 283.192 53.1073 283.227 52.809C283.231 52.7702 283.236 52.732 283.241 52.6943L283.241 52.6939L283.241 52.6939C283.25 52.6336 283.258 52.5743 283.258 52.515L283.298 52.221C283.346 51.8393 283.398 51.462 283.469 51.0759C283.53 50.7219 283.6 50.3665 283.679 50.0097C283.695 49.9351 283.709 49.8771 283.724 49.8135L283.724 49.8127C283.743 49.7344 283.764 49.6472 283.793 49.5095C283.841 49.2852 283.902 49.0469 283.946 48.8766L283.96 48.8207C283.979 48.7459 283.997 48.6829 284.016 48.6164L284.017 48.612L284.017 48.6118C284.041 48.5276 284.067 48.4359 284.1 48.3029C284.162 48.0626 284.24 47.7997 284.293 47.6242L284.294 47.6228C284.317 47.5447 284.339 47.4779 284.362 47.4069C284.39 47.3184 284.421 47.2234 284.46 47.0919C284.523 46.8811 284.589 46.691 284.658 46.4909L284.868 45.8854C284.923 45.7276 284.989 45.5601 285.046 45.4143L285.078 45.3317C285.096 45.2862 285.113 45.2436 285.127 45.2053C285.193 45.0298 285.241 44.9026 285.333 44.6744C285.426 44.4462 285.548 44.1523 285.623 43.9812C285.648 43.9242 285.672 43.8672 285.696 43.8102C285.745 43.6961 285.794 43.582 285.847 43.4678C285.952 43.2265 286.066 42.9852 286.18 42.7482C286.255 42.5859 286.329 42.4236 286.408 42.2612C286.54 41.9936 286.676 41.7303 286.816 41.4627C286.839 41.4188 286.861 41.3749 286.883 41.331L286.886 41.3265C286.931 41.2359 286.977 41.1453 287.027 41.0546C287.113 40.901 287.197 40.7481 287.28 40.5952L287.281 40.5934L287.282 40.592C287.414 40.3487 287.547 40.1058 287.69 39.8612L287.773 39.7208C287.949 39.4002 288.147 39.0833 288.348 38.7634L288.405 38.6722C288.482 38.5289 288.563 38.4059 288.644 38.2825L288.677 38.2334C288.839 37.979 289.001 37.7245 289.173 37.47C289.243 37.3646 289.317 37.2593 289.391 37.1539C289.428 37.1013 289.465 37.0487 289.502 36.9961C289.664 36.7636 289.875 36.4652 289.993 36.2985C290.048 36.2213 290.095 36.1589 290.146 36.0918C290.206 36.014 290.27 35.9295 290.357 35.8071C290.52 35.5789 290.691 35.3596 290.862 35.1402L291.235 34.6576C291.308 34.5714 291.385 34.4734 291.46 34.3767C291.566 34.2421 291.669 34.1096 291.761 34.0126C291.847 33.9218 291.917 33.8411 291.991 33.7548C292.053 33.6828 292.118 33.6066 292.2 33.5168C292.291 33.4169 292.395 33.2962 292.494 33.181L292.494 33.1804L292.496 33.1784C292.592 33.0669 292.684 32.9601 292.757 32.8806C292.906 32.7182 293.051 32.5603 293.196 32.398C293.294 32.2938 293.389 32.1931 293.483 32.0925L293.486 32.0893C293.672 31.8901 293.858 31.6915 294.073 31.4678C294.398 31.1299 294.727 30.8053 295.061 30.4806L295.148 30.3972L295.407 30.1471C295.471 30.0881 295.537 30.0284 295.602 29.9686C295.766 29.8196 295.929 29.6707 296.07 29.5329C296.229 29.3775 296.407 29.2221 296.581 29.0713C296.623 29.0348 296.665 28.9985 296.706 28.9625L297.211 28.5062L297.864 27.9665C297.925 27.9178 297.981 27.8715 298.037 27.8255L298.039 27.8237C298.148 27.7339 298.258 27.6432 298.408 27.5277L298.63 27.3578C298.792 27.2335 298.952 27.1106 299.075 27.0144L299.162 26.9462C299.3 26.838 299.419 26.7442 299.624 26.602C299.769 26.5006 299.92 26.3915 300.055 26.2929L300.057 26.292L300.058 26.2911C300.15 26.224 300.236 26.1619 300.308 26.1106C300.368 26.0681 300.428 26.0253 300.488 25.9824C300.608 25.8966 300.728 25.8107 300.848 25.7288L301.563 25.2594C301.617 25.2243 301.671 25.1887 301.725 25.1531C301.834 25.0819 301.942 25.0107 302.05 24.9435L302.155 24.8776C302.233 24.8283 302.306 24.7809 302.376 24.7351L302.376 24.7351C302.538 24.6303 302.687 24.5335 302.849 24.4389L303.366 24.123C303.647 23.9607 303.928 23.8071 304.208 23.6537L304.209 23.6535L304.503 23.4912L304.748 23.3639ZM277.239 7.56415C276.792 8.14916 276.362 8.7722 275.949 9.43326C273.635 13.2134 272.065 17.4012 271.325 21.7711C270.794 24.7484 270.592 27.775 270.724 30.7964C270.816 33.0107 271.1 35.2128 271.575 37.3777C271.759 38.2055 271.97 39.0158 272.206 39.8085C272.443 40.6011 272.705 41.369 272.992 42.1119C273.541 43.5494 274.207 44.9391 274.984 46.267L275.04 46.3599C275.244 46.7004 275.443 47.0333 275.668 47.3551L275.905 47.6973C276.063 47.9313 276.226 48.1595 276.392 48.3818C276.449 48.4592 276.507 48.5335 276.565 48.6075L276.566 48.6084L276.567 48.6095C276.607 48.6607 276.647 48.7117 276.686 48.7635C276.84 48.9609 276.998 49.154 277.156 49.3427C277.314 49.5313 277.371 49.5971 277.48 49.72C277.59 49.8428 277.796 50.071 277.959 50.2377C278.018 50.2984 278.064 50.3469 278.105 50.3895L278.105 50.3899C278.176 50.4642 278.23 50.5207 278.305 50.5931L278.397 50.6816C278.515 50.7965 278.671 50.9477 278.801 51.067L279.156 51.3917L279.683 51.8304L280.038 52.1112C280.123 52.1751 280.207 52.2366 280.292 52.2981C280.405 52.3802 280.518 52.4622 280.631 52.55L280.951 52.7694C281.258 52.9712 281.57 53.1599 281.89 53.331C281.916 52.9975 281.951 52.6641 281.995 52.3262V52.2297C282.052 51.7909 282.118 51.3522 282.193 50.9134C282.262 50.5056 282.331 50.1812 282.408 49.8239L282.408 49.8235L282.425 49.7419L282.53 49.3032C282.588 49.0662 282.645 48.8293 282.706 48.5924L282.725 48.5208C282.776 48.323 282.812 48.1818 282.86 48.0088L283.017 47.456C283.088 47.2235 283.158 46.9953 283.232 46.7628C283.255 46.6902 283.279 46.6191 283.303 46.5487L283.303 46.5478C283.321 46.4949 283.338 46.4424 283.355 46.3898C283.82 45.0019 284.365 43.6424 284.988 42.3182H284.86L284.536 37.9744L283.408 38.0578H283.382L279.959 38.3123L279.262 38.3606L279.547 35.1971L281.192 35.0523L281.565 35.0304C281.785 34.996 281.986 34.8845 282.132 34.7157C282.277 34.5469 282.358 34.3318 282.359 34.109L281.46 22.3547C281.408 22.1454 281.312 21.9494 281.179 21.7799C281.015 21.6011 280.808 21.467 280.578 21.3902C280.347 21.3135 280.101 21.2966 279.863 21.3411C279.695 21.3274 279.526 21.3274 279.358 21.3411L278.073 21.4552H277.963L277.757 18.6603L279.42 18.4673L279.99 18.4278H280.082L283.044 18.204L282.724 13.9261H283.013L285.045 13.7726H285.334L285.646 18.0241L286.005 17.9934L287.023 17.9276H287.019L286.005 17.9934L287.651 17.8486H287.73L287.423 13.6146L289.744 13.4391H290.029L290.354 17.7302C293.745 17.7697 296.334 18.8183 297.027 21.679C297.426 23.9254 296.505 25.426 295.057 26.3079C295.693 26.5016 296.287 26.8119 296.809 27.2229C296.589 27.4059 296.37 27.5912 296.152 27.7788C295.314 28.4972 294.493 29.2588 293.688 30.0637C292.749 28.6991 290.362 28.6289 288.489 28.7474L286.804 28.8966L286.497 28.9273L286.979 34.6794L288.625 34.5302C288.796 34.5302 289 34.5206 289.23 34.5099C289.411 34.5014 289.609 34.4921 289.818 34.4863C290.02 34.2231 290.231 33.9642 290.441 33.7053C290.529 33.5913 290.621 33.4772 290.713 33.3675C290.893 33.1481 291.077 32.9287 291.262 32.7137L291.731 32.1741C291.772 32.1282 291.813 32.0821 291.853 32.0358L291.854 32.0354C291.957 31.918 292.06 31.8003 292.17 31.6871C292.486 31.336 292.811 30.985 293.144 30.6428C294.101 29.6381 295.106 28.6824 296.152 27.7788C296.371 27.5912 296.591 27.4066 296.812 27.2249L296.809 27.2229C299.783 24.7587 303.083 22.7044 306.623 21.1218C306.29 18.5343 305.668 15.9926 304.767 13.5444C304.364 12.4464 303.895 11.3738 303.363 10.3327C303.135 9.89396 302.898 9.4552 302.652 9.03838C299.638 3.93124 295.307 0.701982 290.406 0.443115H289.494C289.191 0.443115 288.923 0.443115 288.638 0.486991C287.786 0.545636 286.942 0.689687 286.12 0.916974C282.824 1.8954 279.762 4.22521 277.239 7.56415ZM322.575 35.5555L302.254 32.671C301.71 32.5938 300.847 32.4742 299.855 32.7293C298.929 32.9673 298.054 33.4464 297.346 34.1006C296.639 34.7548 296.132 35.5532 295.894 36.388C295.634 37.2958 295.819 38.0539 295.939 38.5442L295.943 38.5627L300.722 61.1568C300.828 61.6581 301.24 62.0175 301.802 62.0992C302.364 62.1809 302.991 61.9729 303.447 61.5532L324.126 42.5262L324.13 42.5221C324.135 42.5175 324.14 42.5129 324.145 42.5081C324.818 41.8733 325.301 41.104 325.575 40.3739C325.864 39.6056 325.93 38.8625 325.786 38.1451C325.778 38.104 325.767 38.0635 325.755 38.0238C325.594 37.5141 325.352 36.8212 324.601 36.2969C323.975 35.8594 323.294 35.6576 322.575 35.5555ZM301.134 35.6494L309.641 36.8569L302.897 54.7898L299.23 37.453C299.229 37.4483 299.228 37.4436 299.227 37.4389C299.225 37.432 299.224 37.4252 299.222 37.4183C299.089 36.8704 299.089 36.7179 299.125 36.5897C299.189 36.366 299.325 36.1528 299.513 35.9789C299.701 35.8051 299.932 35.6792 300.174 35.6171C300.349 35.5721 300.575 35.57 301.134 35.6494ZM306.018 55.316L312.791 37.3042L321.455 38.5341C321.839 38.5885 322.06 38.6712 322.255 38.8075C322.302 38.8402 322.332 38.8725 322.365 38.9296C322.403 38.9964 322.443 39.0916 322.501 39.269C322.536 39.4905 322.511 39.6971 322.425 39.9267C322.318 40.2098 322.139 40.4762 321.955 40.6522L306.018 55.316Z" fill="white"/>
</svg>
