<svg width="474" height="205" viewBox="0 0 474 205" fill="none" xmlns="http://www.w3.org/2000/svg">
<path d="M393 41C393 39.3431 391.657 38 390 38H25.3834C23.88 37.9994 22.4371 38.5923 21.3685 39.6498L1.69369 59.1404C1.15736 59.6706 0.731522 60.302 0.440803 60.9979C0.150084 61.6938 0.000259921 62.4405 0 63.1947V199.215C0 200.728 0.600969 202.179 1.6707 203.248C2.74043 204.318 4.1913 204.919 5.70412 204.919H400.871C402.092 204.919 403.281 204.527 404.262 203.8L433.349 182.274C434.065 181.743 434.647 181.052 435.048 180.255C435.449 179.459 435.657 178.58 435.657 177.689V86.1098C435.657 84.3923 434.265 83 432.547 83V83C430.83 83 429.438 84.3923 429.438 86.1098V168.538C429.438 170.747 427.647 172.538 425.438 172.538C404.373 172.536 116.296 172.525 95.2191 172.514C74.1423 172.503 53.0654 172.492 32.0007 172.491C29.7917 172.491 28.0009 170.7 28.0008 168.491C27.9996 142.039 28 115.588 28.0004 89.1363C28.0006 75.9922 28.0007 62.8482 28.0007 49.7041V48.0007C28.0007 45.7933 29.7893 44.0026 31.9966 44.0009C32.6731 44.0004 33.2898 44 33.7049 44H390C391.657 44 393 42.6569 393 41V41Z" fill="black"/>
<path d="M116.865 114.061L107.452 88.1471H89.5881L80.1358 114.061L66.8637 88.1471H49L70.7148 128.974H89.5876L98.5156 108.645L107.451 128.974H126.316L148.032 88.1471H130.168L116.865 114.061Z" fill="black"/>
<path d="M152.662 121.564H173.06L176.263 128.974H194.135L172.289 88.1471H153.417L131.585 129.005H149.449L152.662 121.564ZM162.869 99.6249L168.438 111.642H157.261L162.869 99.6249Z" fill="black"/>
<path d="M219.424 99.6865C221.555 99.664 223.679 99.9098 225.749 100.418C227.474 100.789 229.009 101.764 230.078 103.168H246.948C245.161 90.643 233.529 87.5694 219.424 87.5694C204.095 87.5694 191.562 91.2438 191.623 106.65V109.616C191.562 124.984 204.095 129.69 219.424 129.744C226.357 129.744 233.506 127.795 238.228 123.135L238.998 128.974H246.932V106.134H219.278V113.067H232.057C229.662 116.148 225.664 116.518 219.401 116.518C212.884 116.426 207.376 115.278 207.469 108.591V107.59C207.4 100.988 212.907 99.8175 219.424 99.6865Z" fill="black"/>
<path d="M322.532 128.974V88.1471H302.697L286.797 108.129L270.936 88.1471H251.07V128.974H266.938V106.766L282.83 128.974H290.764L306.664 106.766V128.974H322.532Z" fill="black"/>
<path d="M342.507 88.1471H326.638L326.638 128.974H342.507L342.507 88.1471Z" fill="black"/>
<path d="M378.357 128.974V85.7976H355.902V99.4169H361.564V128.974H378.357Z" fill="black"/>
<path d="M409 128.974V85.7976H386.545V99.4169H392.207V128.974H409Z" fill="black"/>
<path fill-rule="evenodd" clip-rule="evenodd" d="M402.455 45.8633C402.635 46.1705 402.823 46.4688 403.012 46.7409C403.043 46.7891 403.074 46.8352 403.106 46.8813L403.107 46.8825L403.107 46.8826C403.139 46.9282 403.17 46.9739 403.201 47.0217L403.289 47.1525L403.29 47.1528C403.392 47.3033 403.494 47.4547 403.6 47.6008L403.832 47.9167C403.875 47.9722 403.917 48.0286 403.959 48.0845C404.043 48.1966 404.126 48.3087 404.214 48.4169L404.473 48.7328C404.596 48.8864 404.723 49.04 404.85 49.1716L405.131 49.4831C405.258 49.6235 405.386 49.7595 405.517 49.8955L405.807 50.1895C405.938 50.3211 406.07 50.4484 406.206 50.5712C406.228 50.5909 406.248 50.6091 406.266 50.6262C406.297 50.6539 406.323 50.6788 406.348 50.7019L406.353 50.7058L406.354 50.7072L406.356 50.7087C406.408 50.7572 406.453 50.7991 406.509 50.8476L406.531 50.8673C406.634 50.9565 406.791 51.0927 406.917 51.1986L407.228 51.4575L407.667 51.7778L407.983 52.0103L407.985 52.0116C408.133 52.1121 408.282 52.2126 408.422 52.3087L408.733 52.5105C408.858 52.5868 408.988 52.6602 409.117 52.7332L409.22 52.7913C409.238 52.8015 409.255 52.8108 409.27 52.8194C409.286 52.8288 409.301 52.8374 409.314 52.8453L409.363 52.8734C409.418 52.9054 409.453 52.926 409.514 52.9581C409.652 53.03 409.792 53.0975 409.932 53.1652C409.989 53.1926 410.046 53.2199 410.102 53.2476L410.308 53.3442C410.576 53.467 410.848 53.5767 411.125 53.6776L411.353 53.7566C411.41 53.7754 411.468 53.7946 411.525 53.8137C411.668 53.8615 411.81 53.9089 411.954 53.9496C412.02 53.9707 412.086 53.9871 412.152 54.0035C412.195 54.0143 412.239 54.0252 412.283 54.0374L412.801 54.1646L413.165 54.2348C413.216 54.2435 413.266 54.2526 413.316 54.2615C413.444 54.2843 413.57 54.3069 413.696 54.3226L413.889 54.3489C414.156 54.3796 414.424 54.4103 414.696 54.4235L415.666 54.4762L415.363 54.3226C415.323 54.3006 415.283 54.2787 415.243 54.2567L415.241 54.2557C415.065 54.1593 414.886 54.0617 414.722 53.9584L414.117 53.5679L413.876 53.4144C413.795 53.3588 413.715 53.2988 413.636 53.2386L413.635 53.2385L413.634 53.2374C413.576 53.1935 413.518 53.1496 413.459 53.1072L413.416 53.0768C413.302 52.9949 413.233 52.9449 413.138 52.8703C412.932 52.7136 412.727 52.5416 412.526 52.3717C412.462 52.3182 412.399 52.2648 412.336 52.2122L412.213 52.1113C411.91 51.8392 411.616 51.5584 411.335 51.2645C411.28 51.2095 411.227 51.1526 411.173 51.0951L411.172 51.0938L411.124 51.0427L411.089 51.0056C410.888 50.7906 410.681 50.5668 410.484 50.3475C410.42 50.2746 410.356 50.1979 410.292 50.1212L410.291 50.1204C410.259 50.0818 410.227 50.0433 410.194 50.0052C410.083 49.8723 409.974 49.7359 409.865 49.6004L409.862 49.597C409.796 49.5146 409.73 49.4324 409.663 49.3515L409.383 48.9829C409.203 48.7416 409.027 48.4959 408.856 48.2414C408.826 48.1964 408.794 48.1517 408.762 48.1073L408.762 48.1066L408.762 48.1065C408.717 48.043 408.672 47.9792 408.628 47.9123C408.387 47.5482 408.15 47.1752 407.922 46.7891C407.527 46.1222 407.158 45.4246 406.812 44.705C406.658 44.3891 406.513 44.0644 406.373 43.7398C404.227 38.8959 403.148 32.9463 403.503 26.5536V26.5185C403.942 18.735 406.482 11.7806 410.225 6.83146C410.444 6.54188 410.664 6.26546 410.892 5.99343L411.028 5.82232L411.126 5.70638L411.127 5.70554C411.316 5.4825 411.502 5.26312 411.704 5.0501L411.813 4.93164C411.905 4.83403 411.999 4.73964 412.092 4.64537L412.093 4.64466L412.093 4.64463C412.218 4.51878 412.342 4.39314 412.463 4.26034L412.577 4.14626C412.703 4.02285 412.83 3.90669 412.958 3.78958L412.959 3.78904C413.072 3.68572 413.186 3.58151 413.301 3.47057L413.454 3.33017C413.959 2.89141 414.477 2.47898 415.008 2.10165L415.17 1.98319C415.433 1.80329 415.692 1.62779 415.96 1.46106L416.091 1.38647C416.307 1.25193 416.522 1.12738 416.74 1.00124L416.74 1.0012L416.833 0.947717L416.925 0.895066H416.964C417.228 0.754663 417.495 0.623036 417.763 0.500184L417.833 0.465083L417.934 0.421207C418.227 0.28958 418.519 0.166728 418.812 0.0526509L417.842 0H416.842L416.293 0.0351006L415.929 0.0614262C415.801 0.0614262 415.676 0.0834911 415.55 0.105712C415.498 0.114827 415.446 0.12397 415.394 0.131627L415.065 0.179891C414.901 0.207744 414.737 0.243896 414.576 0.279557L414.576 0.279566L414.45 0.30713L414.205 0.359781C413.924 0.429982 413.639 0.508959 413.362 0.601098L413.147 0.675687C412.937 0.745888 412.73 0.820477 412.524 0.899453L412.204 1.03547L412.13 1.06663C411.987 1.12662 411.841 1.18755 411.699 1.25485L411.353 1.42596L410.883 1.66728L410.532 1.86911L410.093 2.13675L410.092 2.13734C409.974 2.21173 409.856 2.28614 409.742 2.3649L409.304 2.65887L408.957 2.90896L408.518 3.22926L408.176 3.50567C408.036 3.61975 407.9 3.73821 407.764 3.85667L407.764 3.85668L407.435 4.15065C407.294 4.27789 407.158 4.40952 407.022 4.54114L406.711 4.84389C406.606 4.94807 406.505 5.0571 406.402 5.16736L406.4 5.16868C406.365 5.20657 406.33 5.24461 406.294 5.28264L406.236 5.34417L406.199 5.38325C406.123 5.46325 406.076 5.51224 406.009 5.58977L405.956 5.64979L405.954 5.65206L405.952 5.6537C405.848 5.77249 405.686 5.95675 405.57 6.09873L405.333 6.37515C405.114 6.64133 404.899 6.91336 404.688 7.19124C401.454 11.4647 399.37 16.7825 398.488 22.3459C398.146 24.4903 397.983 26.6594 398.001 28.8308C398.001 29.2695 398.001 29.7083 398.032 30.147C398.286 35.75 399.739 41.2564 402.455 45.8633ZM421.405 20.841L421.316 20.8491L421.4 20.841H421.405ZM420.379 20.9495L420.343 20.9535C420.192 20.9697 420.056 20.9828 419.939 20.9902L420.378 26.207C420.69 26.185 422.778 26.0403 423.287 26.0227C424.818 25.7682 426.306 25.0794 426.336 23.1488C425.981 20.9902 423.884 20.7137 422.094 20.7927L421.576 20.8454L420.29 20.9594L420.343 20.9535C420.432 20.944 420.525 20.9334 420.623 20.9224L420.832 20.899C420.67 20.9165 420.518 20.9337 420.379 20.9495ZM473.24 39.5452C473.266 39.7339 473.266 39.962 473.266 40.1726L473.257 40.6509V41.7741C473.254 41.87 473.246 41.9667 473.239 42.0638L473.239 42.0641C473.228 42.2023 473.218 42.3414 473.218 42.4805C473.215 42.534 473.21 42.5875 473.205 42.6412L473.205 42.6417C473.196 42.7332 473.187 42.8254 473.187 42.9192C473.165 43.1781 473.135 43.4414 473.104 43.7046C473.099 43.7471 473.093 43.79 473.088 43.8319L473.087 43.8328C473.076 43.9156 473.064 43.9978 473.064 44.0819C473.012 44.4637 472.955 44.8498 472.884 45.2403C472.779 45.9335 472.626 46.6355 472.446 47.3419C471.103 52.3768 468.74 57.0824 465.505 61.1672C463.558 63.6768 461.352 65.974 458.923 68.0206C457.786 68.9762 456.599 69.8725 455.369 70.7058C454.565 71.2527 453.755 71.7602 452.939 72.2283C449.886 74.0178 446.571 75.3149 443.115 76.0718C442.72 76.1507 442.325 76.2253 441.93 76.2868C441.903 76.2915 441.877 76.2967 441.85 76.3019C441.754 76.3206 441.657 76.3394 441.557 76.3394C441.294 76.3789 441.026 76.4184 440.763 76.4491L440.697 76.4573C440.573 76.4728 440.447 76.4886 440.324 76.4886C440.289 76.4919 440.253 76.4955 440.218 76.4994C440.181 76.5035 440.143 76.5077 440.106 76.512L440.105 76.5122C439.94 76.5311 439.774 76.55 439.613 76.55C439.455 76.572 439.302 76.572 439.148 76.572L438.477 76.5983H438.003C437.939 76.5983 437.866 76.6011 437.792 76.6039C437.638 76.6098 437.476 76.616 437.367 76.5983C437.268 76.5822 437.19 76.5808 437.097 76.5792C437.038 76.5782 436.973 76.5771 436.893 76.572C436.687 76.5588 436.432 76.5412 436.275 76.5281C436.18 76.5202 436.102 76.5107 436.012 76.4997C435.952 76.4923 435.886 76.4842 435.805 76.4754C435.603 76.4535 435.406 76.4315 435.208 76.4008L434.743 76.3219L434.682 76.3107C434.501 76.2778 434.29 76.2397 434.168 76.2122C434.032 76.1815 433.883 76.1464 433.73 76.1069L433.172 75.9709L432.734 75.8348C432.554 75.7822 432.374 75.7252 432.198 75.6637L431.76 75.5058C431.689 75.4787 431.616 75.4485 431.544 75.4185C431.44 75.3757 431.337 75.3331 431.242 75.2996C431.118 75.256 431.009 75.2073 430.902 75.1594L430.902 75.1594L430.901 75.1586C430.868 75.144 430.836 75.1295 430.803 75.1153L430.307 74.8784C430.176 74.8106 430.073 74.7551 429.921 74.6724L429.919 74.6714L429.904 74.6634C429.796 74.6049 429.678 74.5368 429.572 74.4757L429.493 74.4302L429.425 74.3913L429.362 74.3556C429.255 74.2956 429.153 74.2388 429.039 74.1544C428.903 74.0535 428.723 73.9306 428.601 73.8473C428.529 73.7987 428.469 73.7546 428.402 73.7046C428.353 73.6687 428.301 73.6298 428.236 73.584C428.083 73.4743 427.916 73.3427 427.798 73.2462C427.679 73.1497 427.561 73.0529 427.446 72.952C427.245 72.7766 427.043 72.6011 426.85 72.4125L425.244 70.912L425.319 70.9427L425.367 70.969L425.442 71.0085L425.569 71.0743L425.63 71.1094L425.836 71.2191L426.065 71.342L426.187 71.4078L426.253 71.4429L426.389 71.5131L426.477 71.5526C426.715 71.6413 426.961 71.719 427.203 71.7957L427.267 71.8158L427.355 71.8465L427.684 71.9431H427.719C428.078 72.0484 428.438 72.1361 428.802 72.2195L428.982 72.2634C429.342 72.3423 429.706 72.4125 430.075 72.474L430.259 72.5003C430.636 72.5573 431.014 72.61 431.4 72.6495H431.514L431.602 72.6576L431.706 72.6674C432.028 72.6979 432.351 72.7284 432.677 72.7284H434.142C434.533 72.7197 434.919 72.6977 435.314 72.667H435.533C435.928 72.6319 436.327 72.5836 436.726 72.5266L436.902 72.5003C437.323 72.4389 437.753 72.3643 438.174 72.2765C438.596 72.1888 439.021 72.0879 439.442 71.9826C439.864 71.8773 440.276 71.7588 440.715 71.6315C445.32 70.1915 449.617 67.9061 453.386 64.8922C455.027 63.6002 456.58 62.1988 458.033 60.6977C464.022 54.4937 467.773 47.2015 468.966 40.4008C469.037 39.9971 469.094 39.5978 469.146 39.1986C469.148 39.1871 469.15 39.1756 469.152 39.1641L469.159 39.1309C469.17 39.0745 469.181 39.0181 469.181 38.9616C469.225 38.5755 469.265 38.1894 469.295 37.8077V37.5927L469.305 37.4635C469.329 37.1415 469.352 36.817 469.352 36.4958V35.0172C469.339 34.6443 469.317 34.2757 469.287 33.9072V33.7492C469.256 33.4026 469.216 33.0604 469.168 32.7181V32.5733C469.111 32.2136 469.05 31.8582 468.979 31.5072C468.975 31.4873 468.97 31.4678 468.964 31.4485L468.964 31.4467C468.949 31.3941 468.936 31.3431 468.936 31.2922C468.857 30.9412 468.773 30.5901 468.681 30.2435C468.677 30.2276 468.673 30.2117 468.669 30.1959C468.666 30.1877 468.664 30.1797 468.661 30.1716C468.657 30.156 468.651 30.1405 468.646 30.1251C468.585 29.9013 468.519 29.6819 468.444 29.4625L468.418 29.366C468.402 29.3304 468.389 29.2938 468.378 29.2563C468.26 28.9141 468.137 28.5719 468.001 28.2384L468.769 29.0238C469.019 29.2739 469.278 29.5459 469.493 29.7916C469.708 30.0373 469.918 30.2918 470.116 30.555L470.195 30.6647C470.362 30.8929 470.528 31.1254 470.686 31.3624C470.724 31.4216 470.76 31.4825 470.796 31.5441C470.819 31.5828 470.842 31.6217 470.866 31.6607C470.98 31.8406 471.09 32.0249 471.195 32.2092L471.212 32.2384C471.267 32.339 471.304 32.4041 471.384 32.5646C471.42 32.6362 471.461 32.7166 471.501 32.7954L471.501 32.7963C471.559 32.9101 471.615 33.0204 471.652 33.0955C471.685 33.1652 471.71 33.223 471.738 33.2899L471.738 33.2912L471.739 33.2925C471.762 33.3471 471.788 33.4078 471.823 33.4859C471.901 33.6609 471.976 33.8359 472.05 34.0108L472.051 34.0125L472.204 34.4293C472.231 34.5084 472.259 34.5866 472.287 34.6651L472.288 34.6667L472.288 34.6678L472.289 34.6691C472.324 34.7679 472.359 34.8671 472.393 34.9689L472.525 35.4077C472.556 35.5181 472.591 35.6442 472.622 35.7578L472.649 35.8567L472.678 35.9605C472.718 36.1009 472.744 36.2106 472.788 36.3993C472.812 36.5015 472.835 36.6218 472.857 36.7315C472.875 36.8242 472.892 36.9094 472.906 36.9697C472.937 37.1013 472.963 37.2154 472.994 37.4084C473.025 37.6015 473.06 37.834 473.082 37.992L473.096 38.0909L473.096 38.092L473.096 38.0941L473.096 38.0951C473.112 38.2053 473.126 38.3061 473.143 38.4615C473.151 38.5363 473.156 38.6175 473.16 38.6977C473.168 38.8337 473.176 38.9676 473.2 39.0669C473.222 39.1552 473.224 39.2352 473.226 39.3216C473.227 39.3898 473.228 39.4619 473.24 39.5452ZM438.748 23.3639C439.082 23.1884 439.415 23.0173 439.749 22.855L439.973 22.7628C440.209 22.6483 440.449 22.5399 440.686 22.4326L440.687 22.4322L440.688 22.4317L440.819 22.3723L441.039 22.2758L441.35 22.1398L442.017 21.8634L442.811 21.5519L443.351 21.3544L444.167 21.078L444.68 20.9157C444.966 20.8235 445.26 20.7402 445.558 20.6612C445.616 20.6458 445.674 20.6297 445.731 20.6137C445.82 20.5888 445.908 20.5641 445.997 20.5427C446.435 20.4286 446.874 20.3277 447.313 20.2356C448.862 19.9079 450.438 19.7301 452.021 19.7047C452.29 19.6871 452.558 19.693 452.824 19.6989C452.956 19.7018 453.087 19.7047 453.219 19.7047C454.219 19.7474 455.213 19.8707 456.193 20.0732C456.606 20.1566 457.075 20.2751 457.413 20.3672C457.751 20.4594 458.08 20.569 458.409 20.6831C459.375 21.0254 460.303 21.4665 461.178 21.9994C462.048 22.5339 462.856 23.1637 463.586 23.8773C463.641 23.9317 463.693 23.9879 463.746 24.0448L463.747 24.0458L463.748 24.0466L463.778 24.079C463.796 24.098 463.814 24.1171 463.832 24.1361C463.916 24.2364 464.01 24.3385 464.106 24.4423L464.182 24.5255C464.212 24.5579 464.242 24.5904 464.271 24.6232C467.654 28.4623 468.759 34.0214 467.684 40.1333C467.614 40.5413 467.535 40.945 467.443 41.3574C467.351 41.7698 467.237 42.2393 467.14 42.5991L467.122 42.6677L467.122 42.6692C467.031 43.0061 466.94 43.3467 466.833 43.6872C466.719 44.0514 466.605 44.4155 466.478 44.7841C466.316 45.2536 466.14 45.723 465.956 46.1925C465.71 46.8243 465.447 47.4517 465.157 48.0792C464.821 48.7987 464.457 49.53 464.065 50.2729C463.673 51.0159 463.253 51.7472 462.805 52.4667C461.169 55.0959 459.257 57.5434 457.102 59.7677C453.694 63.3326 449.684 66.2677 445.255 68.4375C444.43 68.8324 443.61 69.1922 442.785 69.5125L442.622 69.5713C442.265 69.7007 441.91 69.8293 441.552 69.9512C440.73 70.2379 439.914 70.4836 439.104 70.6883C438.696 70.7893 438.244 70.8989 437.888 70.9691C437.533 71.0394 437.173 71.1052 436.818 71.1622L436.537 71.2105C436.23 71.2587 435.923 71.2982 435.616 71.3333H435.466C435.12 71.3728 434.778 71.3991 434.436 71.4254L434.435 71.4255H434.172C433.891 71.4562 433.611 71.4562 433.334 71.4562H431.899C431.632 71.443 431.364 71.4255 431.101 71.3991L430.855 71.3772C430.539 71.3465 430.219 71.307 429.907 71.2587L429.741 71.228C429.488 71.1907 429.243 71.1416 428.994 71.0919L428.951 71.0832L428.705 71.0306C428.398 70.9604 428.095 70.8858 427.797 70.8024H427.736C427.459 70.7191 427.183 70.6313 426.911 70.5348L426.678 70.4514C426.415 70.3549 426.156 70.254 425.902 70.1443L425.818 70.1136C425.638 70.0346 425.48 69.96 425.292 69.8591C425.197 69.8086 425.092 69.756 424.985 69.7022C424.877 69.6485 424.767 69.5936 424.664 69.5388C424.537 69.4686 424.41 69.3984 424.287 69.3238C424.085 69.2068 423.888 69.084 423.695 68.9553L423.339 68.7183C423.133 68.5867 422.936 68.4331 422.738 68.2796L422.449 68.0558C422.402 68.0175 422.354 67.9778 422.306 67.9383C422.057 67.7337 421.791 67.5156 421.615 67.3099C421.496 67.1711 421.371 67.045 421.248 66.9195L421.248 66.9195C421.152 66.8228 421.057 66.7266 420.966 66.6254L420.777 66.4061C420.636 66.2393 420.496 66.0682 420.364 65.8971L420.167 65.6382C420.035 65.4627 419.912 65.2828 419.79 65.103C419.775 65.0816 419.761 65.0602 419.746 65.0387C419.707 64.9809 419.667 64.9224 419.632 64.8616C419.469 64.6072 419.311 64.3527 419.167 64.085C419.165 64.0763 419.165 64.0674 419.167 64.0587C419.004 63.7867 418.859 63.5059 418.728 63.2207C418.699 63.1622 418.673 63.1036 418.648 63.0451C418.635 63.0159 418.623 62.9866 418.609 62.9574C418.517 62.7556 418.43 62.5494 418.346 62.3432L418.228 62.0317C418.165 61.8825 418.108 61.7088 418.053 61.5385C418.038 61.4933 418.023 61.4484 418.008 61.4042L417.912 61.1103C417.828 60.8295 417.745 60.5443 417.675 60.2547C417.665 60.2276 417.658 60.1997 417.653 60.1713C417.574 59.8554 417.508 59.5351 417.447 59.2104C417.441 59.1802 417.434 59.1492 417.427 59.1176C417.411 59.0484 417.394 58.977 417.394 58.9077C417.355 58.6795 417.319 58.447 417.289 58.2145C417.284 58.1855 417.28 58.1565 417.275 58.1274C417.26 58.0378 417.245 57.9475 417.245 57.8547C417.237 57.7785 417.228 57.7059 417.219 57.6359C417.198 57.4762 417.179 57.3274 417.179 57.1658C417.148 57.0518 417.148 56.9377 417.148 56.8236C417.113 56.5255 417.113 56.2266 417.113 55.9241V54.7351C417.113 54.6956 417.11 54.662 417.106 54.6283C417.1 54.5611 417.093 54.4938 417.113 54.3797C417.144 54.2086 417.144 54.0331 417.144 53.8576V53.6865C417.166 53.4057 417.192 53.1073 417.227 52.809C417.231 52.7702 417.236 52.732 417.241 52.6943L417.241 52.6939L417.241 52.6939C417.25 52.6336 417.258 52.5743 417.258 52.515L417.298 52.221C417.346 51.8393 417.398 51.462 417.469 51.0759C417.53 50.7219 417.6 50.3665 417.679 50.0097C417.695 49.9351 417.709 49.8771 417.724 49.8135L417.724 49.8127C417.743 49.7344 417.764 49.6472 417.793 49.5095C417.841 49.2852 417.902 49.0469 417.946 48.8766L417.96 48.8207C417.979 48.7459 417.997 48.6829 418.016 48.6164L418.017 48.612L418.017 48.6118C418.041 48.5276 418.067 48.4359 418.1 48.3029C418.162 48.0626 418.24 47.7997 418.293 47.6242L418.293 47.6228C418.317 47.5447 418.339 47.4779 418.362 47.4069C418.39 47.3184 418.421 47.2234 418.46 47.0919C418.523 46.8811 418.589 46.691 418.658 46.4909L418.868 45.8854C418.923 45.7276 418.989 45.5601 419.046 45.4143L419.078 45.3317C419.096 45.2862 419.113 45.2436 419.127 45.2053C419.193 45.0298 419.241 44.9026 419.333 44.6744C419.425 44.4462 419.548 44.1523 419.623 43.9812C419.648 43.9242 419.672 43.8672 419.696 43.8102C419.745 43.6961 419.794 43.582 419.847 43.4678C419.952 43.2265 420.066 42.9852 420.18 42.7482C420.255 42.5859 420.329 42.4236 420.408 42.2612C420.54 41.9936 420.676 41.7303 420.816 41.4627C420.839 41.4188 420.861 41.3749 420.883 41.331L420.886 41.3265C420.931 41.2359 420.977 41.1453 421.027 41.0546C421.113 40.901 421.197 40.7481 421.28 40.5952L421.281 40.5934L421.282 40.592C421.414 40.3487 421.547 40.1058 421.689 39.8612L421.773 39.7208C421.949 39.4002 422.147 39.0833 422.348 38.7634L422.405 38.6722C422.482 38.5289 422.563 38.4059 422.644 38.2825L422.677 38.2334C422.839 37.979 423.001 37.7245 423.172 37.47C423.243 37.3646 423.317 37.2593 423.391 37.1539C423.428 37.1013 423.465 37.0487 423.502 36.9961C423.664 36.7636 423.874 36.4652 423.993 36.2985C424.048 36.2213 424.095 36.1589 424.146 36.0918C424.206 36.014 424.27 35.9295 424.357 35.8071C424.519 35.5789 424.691 35.3596 424.862 35.1402L425.235 34.6576C425.308 34.5714 425.385 34.4734 425.46 34.3767C425.566 34.2421 425.669 34.1096 425.761 34.0126C425.847 33.9218 425.917 33.8411 425.991 33.7548C426.053 33.6828 426.118 33.6066 426.2 33.5168C426.291 33.4169 426.395 33.2962 426.494 33.181L426.494 33.1804L426.496 33.1784C426.592 33.0669 426.684 32.9601 426.757 32.8806C426.906 32.7182 427.051 32.5603 427.196 32.398C427.294 32.2938 427.389 32.1931 427.483 32.0925L427.486 32.0893C427.672 31.8901 427.858 31.6915 428.073 31.4678C428.398 31.1299 428.727 30.8053 429.061 30.4806L429.148 30.3972L429.407 30.1471C429.471 30.0881 429.537 30.0284 429.602 29.9686C429.766 29.8196 429.929 29.6707 430.07 29.5329C430.229 29.3775 430.407 29.2221 430.581 29.0713C430.623 29.0348 430.665 28.9985 430.706 28.9625L431.211 28.5062L431.864 27.9665C431.925 27.9178 431.981 27.8715 432.037 27.8255L432.039 27.8237C432.148 27.7339 432.258 27.6432 432.408 27.5277L432.63 27.3578C432.792 27.2335 432.952 27.1106 433.075 27.0144L433.162 26.9462C433.3 26.838 433.419 26.7442 433.624 26.602C433.769 26.5006 433.919 26.3915 434.055 26.2929L434.057 26.292L434.058 26.2911C434.15 26.224 434.236 26.1619 434.308 26.1106C434.368 26.0681 434.428 26.0253 434.488 25.9824C434.608 25.8966 434.728 25.8107 434.848 25.7288L435.563 25.2594C435.617 25.2243 435.671 25.1887 435.725 25.1531C435.834 25.0819 435.942 25.0107 436.05 24.9435L436.155 24.8776C436.233 24.8283 436.306 24.7809 436.376 24.7351L436.376 24.7351C436.538 24.6303 436.687 24.5335 436.849 24.4389L437.366 24.123C437.647 23.9607 437.928 23.8071 438.208 23.6537L438.209 23.6535L438.503 23.4912L438.748 23.3639ZM411.239 7.56415C410.791 8.14916 410.362 8.7722 409.949 9.43326C407.635 13.2134 406.065 17.4012 405.325 21.7711C404.794 24.7484 404.592 27.775 404.723 30.7964C404.816 33.0107 405.1 35.2128 405.575 37.3777C405.759 38.2055 405.97 39.0158 406.206 39.8085C406.443 40.6011 406.705 41.369 406.992 42.1119C407.54 43.5494 408.207 44.9391 408.984 46.267L409.039 46.3599C409.244 46.7004 409.443 47.0333 409.668 47.3551L409.905 47.6973C410.063 47.9313 410.226 48.1595 410.392 48.3818C410.449 48.4592 410.507 48.5335 410.565 48.6075L410.566 48.6084L410.567 48.6095C410.607 48.6607 410.647 48.7117 410.686 48.7635C410.84 48.9609 410.998 49.154 411.156 49.3427C411.314 49.5313 411.371 49.5971 411.48 49.72C411.59 49.8428 411.796 50.071 411.959 50.2377C412.018 50.2984 412.064 50.3469 412.105 50.3895L412.105 50.3899C412.176 50.4642 412.23 50.5207 412.305 50.5931L412.397 50.6816C412.515 50.7965 412.671 50.9477 412.801 51.067L413.156 51.3917L413.683 51.8304L414.038 52.1112C414.123 52.1751 414.207 52.2366 414.292 52.2981C414.405 52.3802 414.518 52.4622 414.631 52.55L414.951 52.7694C415.258 52.9712 415.57 53.1599 415.89 53.331C415.916 52.9975 415.951 52.6641 415.995 52.3262V52.2297C416.052 51.7909 416.118 51.3522 416.193 50.9134C416.262 50.5056 416.331 50.1812 416.408 49.8239L416.408 49.8235L416.425 49.7419L416.53 49.3032C416.587 49.0662 416.645 48.8293 416.706 48.5924L416.725 48.5208C416.776 48.323 416.812 48.1818 416.86 48.0088L417.017 47.456C417.088 47.2235 417.158 46.9953 417.232 46.7628C417.255 46.6902 417.279 46.6191 417.303 46.5487L417.303 46.5478C417.321 46.4949 417.338 46.4424 417.355 46.3898C417.82 45.0019 418.364 43.6424 418.987 42.3182H418.86L418.536 37.9744L417.408 38.0578H417.382L413.959 38.3123L413.262 38.3606L413.547 35.1971L415.192 35.0523L415.565 35.0304C415.785 34.996 415.986 34.8845 416.132 34.7157C416.277 34.5469 416.358 34.3318 416.359 34.109L415.46 22.3547C415.408 22.1454 415.312 21.9494 415.179 21.7799C415.015 21.6011 414.808 21.467 414.578 21.3902C414.347 21.3135 414.101 21.2966 413.863 21.3411C413.695 21.3274 413.526 21.3274 413.358 21.3411L412.073 21.4552H411.963L411.757 18.6603L413.42 18.4673L413.99 18.4278H414.082L417.044 18.204L416.724 13.9261H417.013L419.045 13.7726H419.334L419.646 18.0241L420.005 17.9934L421.023 17.9276H421.019L420.005 17.9934L421.651 17.8486H421.73L421.423 13.6146L423.744 13.4391H424.029L424.354 17.7302C427.745 17.7697 430.334 18.8183 431.027 21.679C431.426 23.9254 430.505 25.426 429.057 26.3079C429.693 26.5016 430.287 26.8119 430.809 27.2229C430.589 27.4059 430.37 27.5912 430.152 27.7788C429.314 28.4972 428.493 29.2588 427.688 30.0637C426.749 28.6991 424.362 28.6289 422.489 28.7474L420.804 28.8966L420.497 28.9273L420.979 34.6794L422.625 34.5302C422.796 34.5302 423 34.5206 423.23 34.5099C423.411 34.5014 423.609 34.4921 423.818 34.4863C424.02 34.2231 424.231 33.9642 424.441 33.7053C424.529 33.5913 424.621 33.4772 424.713 33.3675C424.893 33.1481 425.077 32.9287 425.262 32.7137L425.731 32.1741C425.772 32.1282 425.813 32.0821 425.853 32.0358L425.854 32.0354C425.957 31.918 426.06 31.8003 426.17 31.6871C426.486 31.336 426.811 30.985 427.144 30.6428C428.101 29.6381 429.106 28.6824 430.152 27.7788C430.371 27.5912 430.591 27.4066 430.812 27.2249L430.809 27.2229C433.783 24.7587 437.083 22.7044 440.623 21.1218C440.29 18.5343 439.668 15.9926 438.767 13.5444C438.364 12.4464 437.895 11.3738 437.363 10.3327C437.135 9.89396 436.898 9.4552 436.652 9.03838C433.638 3.93124 429.307 0.701982 424.406 0.443115H423.494C423.191 0.443115 422.923 0.443115 422.638 0.486991C421.786 0.545636 420.942 0.689687 420.119 0.916974C416.824 1.8954 413.762 4.22521 411.239 7.56415ZM456.575 35.5555L436.254 32.671C435.71 32.5938 434.847 32.4742 433.855 32.7293C432.929 32.9673 432.054 33.4464 431.346 34.1006C430.639 34.7548 430.132 35.5532 429.894 36.388C429.634 37.2958 429.819 38.0539 429.939 38.5442L429.943 38.5627L434.722 61.1568C434.828 61.6581 435.24 62.0175 435.802 62.0992C436.364 62.1809 436.991 61.9729 437.447 61.5532L458.126 42.5262L458.13 42.5221C458.135 42.5175 458.14 42.5129 458.145 42.5081C458.818 41.8733 459.301 41.104 459.575 40.3739C459.864 39.6056 459.93 38.8625 459.786 38.1451C459.778 38.104 459.767 38.0635 459.755 38.0238C459.594 37.5141 459.352 36.8212 458.601 36.2969C457.975 35.8594 457.294 35.6576 456.575 35.5555ZM435.134 35.6494L443.641 36.8569L436.897 54.7898L433.23 37.453C433.229 37.4483 433.228 37.4436 433.227 37.4389C433.225 37.432 433.224 37.4252 433.222 37.4183C433.089 36.8704 433.089 36.7179 433.125 36.5897C433.189 36.366 433.325 36.1528 433.513 35.9789C433.701 35.8051 433.932 35.6792 434.174 35.6171C434.348 35.5721 434.575 35.57 435.134 35.6494ZM440.018 55.316L446.791 37.3042L455.455 38.5341C455.839 38.5885 456.06 38.6712 456.255 38.8075C456.302 38.8402 456.332 38.8725 456.365 38.9296C456.403 38.9964 456.443 39.0916 456.501 39.269C456.536 39.4905 456.511 39.6971 456.425 39.9267C456.318 40.2098 456.138 40.4762 455.955 40.6522L440.018 55.316Z" fill="black"/>
</svg>
